<svg xmlns="http://www.w3.org/2000/svg" viewBox="0 0 112 92" fill="none">
  <defs>
    <linearGradient id="fldFront" x1="56" y1="30" x2="56" y2="88" gradientUnits="userSpaceOnUse">
      <stop stop-color="#9AD3F6"/><stop offset="1" stop-color="#4BA6E6"/>
    </linearGradient>
    <linearGradient id="fldBack" x1="56" y1="6" x2="56" y2="34" gradientUnits="userSpaceOnUse">
      <stop stop-color="#8FCDF4"/><stop offset="1" stop-color="#63B6EC"/>
    </linearGradient>
  </defs>
  <path d="M6 14a8 8 0 0 1 8-8h26l10 12h46a8 8 0 0 1 8 8v14H6V14Z" fill="url(#fldBack)"/>
  <rect x="4" y="24" width="104" height="64" rx="10" fill="url(#fldFront)"/>
  <rect x="4" y="24" width="104" height="10" fill="#fff" fill-opacity=".18"/>
  <g fill="#fff">
    <path d="M42 56a11 11 0 0 1 10.8-11 14 14 0 0 1 26.2 4.3A9 9 0 0 1 77 67H52a11 11 0 0 1-10-11Z" fill-opacity=".95"/>
    <circle cx="53" cy="76" r="3.2" fill-opacity=".9"/>
    <circle cx="64" cy="79" r="3.2" fill-opacity=".9"/>
    <circle cx="75" cy="76" r="3.2" fill-opacity=".9"/>
  </g>
</svg>